<?xml version="1.0" encoding="UTF-8"?>
<svg version="1.1" xmlns="http://www.w3.org/2000/svg" width="250" height="250">
<path d="M0 0 C6.57560658 5.99110822 10.85940073 13.11861618 15.1875 20.8125 C15.62868164 21.59318848 16.06986328 22.37387695 16.52441406 23.17822266 C18.58914662 26.93881257 20.34397843 30.22433735 20.8125 34.5625 C21.451875 33.9025 22.09125 33.2425 22.75 32.5625 C23.76892573 31.56055636 24.79004432 30.56084116 25.8125 29.5625 C26.4209375 28.94632813 27.029375 28.33015625 27.65625 27.6953125 C37.6630967 18.09919458 50.4550683 12.21224655 64.375 12.1875 C65.46844727 12.15076172 65.46844727 12.15076172 66.58398438 12.11328125 C71.78021724 12.08521879 74.69820886 13.14107756 78.8125 16.5625 C81.70204497 19.80744354 83.05954759 23.29427781 83.25 27.625 C82.62352179 33.26330393 81.03548879 36.7077113 76.75 40.375 C72.93097931 43.21895158 70.77107041 43.72087692 66.04785156 44.15722656 C53.20167913 45.31964303 53.20167913 45.31964303 42.875 52.5 C38.30774866 59.28167623 37.67073896 65.80455778 37.6875 73.875 C37.68492187 75.10863281 37.68234375 76.34226562 37.6796875 77.61328125 C37.77199898 80.35819029 37.95234757 82.88686233 38.30078125 85.58984375 C39.09646825 92.30667277 39.10097078 99.05625115 39.125 105.8125 C39.12892761 106.87097641 39.12892761 106.87097641 39.13293457 107.95083618 C39.13963496 124.87098551 36.38593416 140.58334568 30.8125 156.5625 C41.13730463 154.10523961 49.79478196 149.56147286 55.8125 140.5625 C61.5005235 130.33156664 62.74373623 118.95229966 62.98828125 107.42578125 C63.01212891 106.35392578 63.03597656 105.28207031 63.06054688 104.17773438 C63.1037404 101.96439355 63.13486729 99.75078635 63.15429688 97.53710938 C63.31669758 91.27901699 63.53673044 87.27978924 67.8125 82.5625 C72.33653245 79.19165229 75.86693535 77.83229252 81.53515625 78.11328125 C86.75007284 79.14195262 90.532245 81.6906789 93.51171875 86.046875 C95.33380953 90.97144469 95.30125179 95.4751105 95.25 100.6875 C95.24387695 101.74412842 95.23775391 102.80075684 95.23144531 103.8894043 C94.95863908 117.87911781 92.37126949 131.67088565 86.8125 144.5625 C87.89789063 144.51609375 88.98328125 144.4696875 90.1015625 144.421875 C91.54684731 144.38433513 92.99216211 144.34793736 94.4375 144.3125 C95.15035156 144.27898437 95.86320313 144.24546875 96.59765625 144.2109375 C101.82526139 144.11501814 104.64176707 145.15516015 108.8125 148.5625 C112.24167072 152.26239473 113.11219749 155.1417349 113.3125 160.0625 C113.12610303 164.96207754 112.16462688 167.83791458 108.8125 171.5625 C104.75774815 175.12576678 101.23863004 175.69189684 95.94921875 175.95703125 C67.27964967 177.55194886 34.75997053 179.78187394 13.81640625 202.07421875 C7.57012168 209.83032649 5.07059482 217.95120167 4.01220703 227.6875 C3.34837889 232.90068248 1.85154873 235.25391753 -2.1875 238.5625 C-9.0653804 243.25958905 -16.03850984 243.2361249 -24.1875 242.5625 C-30.46443826 241.02460834 -34.5697138 239.07122412 -38.1875 233.5625 C-39.0234375 230.4765625 -39.0234375 230.4765625 -39.5625 227.1875 C-40.86442108 221.08431441 -42.34632467 217.50143352 -47.1875 213.5625 C-56.34329469 207.78541887 -67.15415088 205.39272841 -77.45068359 202.44018555 C-99.21867229 196.16414437 -114.41584988 187.40814474 -126.1875 167.5625 C-133.9642456 153.36602481 -137.33759701 138.22600961 -137.5625 122.125 C-137.59988281 121.11373047 -137.63726562 120.10246094 -137.67578125 119.06054688 C-137.75655927 112.18095249 -136.90730134 108.65275087 -132.1875 103.5625 C-127.43683217 100.83526476 -123.63292905 99.96845319 -118.1875 100.5625 C-112.51200447 102.60567839 -108.88876279 106.15997441 -106.1875 111.5625 C-106.01426998 113.07523069 -105.89034796 114.59378131 -105.79296875 116.11328125 C-104.36807174 138.54140291 -104.36807174 138.54140291 -93.1875 157.5625 C-93.11273438 156.89089844 -93.03796875 156.21929687 -92.9609375 155.52734375 C-90.67396843 138.15086309 -85.28460998 121.31880609 -79.81591797 104.72363281 C-79.48865723 103.72944336 -79.16139648 102.73525391 -78.82421875 101.7109375 C-78.53248779 100.83614746 -78.24075684 99.96135742 -77.94018555 99.06005859 C-75.32200867 90.37243307 -75.12089317 82.36281662 -78.87109375 74 C-82.8839191 66.56972398 -88.51447321 61.08768379 -94.85546875 55.60546875 C-102.74284652 48.69575589 -102.74284652 48.69575589 -103.5234375 43.1953125 C-103.63573326 35.98592445 -102.00036399 32.53609907 -97 27.25 C-93.17162163 24.95297298 -89.64152658 24.19076789 -85.1875 24.5625 C-78.60082869 26.437685 -74.60141251 29.31311509 -69.75 34.0625 C-69.09966797 34.68833984 -68.44933594 35.31417969 -67.77929688 35.95898438 C-53.3320227 50.06124902 -43.3344412 65.68830085 -42.9375 86.4375 C-43.10505418 90.83579718 -43.63332778 95.19839374 -44.1875 99.5625 C-43.22972656 99.27375 -42.27195312 98.985 -41.28515625 98.6875 C-33.87807703 96.57495064 -26.78704308 95.14432237 -19.0625 95.0625 C-18.01654663 95.03542969 -18.01654663 95.03542969 -16.94946289 95.0078125 C-11.91719049 95.06620705 -9.07302518 96.44836585 -5.1875 99.5625 C-1.75832928 103.26239473 -0.88780251 106.1417349 -0.6875 111.0625 C-0.87389697 115.96207754 -1.83537312 118.83791458 -5.1875 122.5625 C-8.00925839 124.98698451 -10.08273427 125.99206127 -13.75 126.5546875 C-14.62366211 126.69938477 -15.49732422 126.84408203 -16.39746094 126.99316406 C-17.77853027 127.21311035 -17.77853027 127.21311035 -19.1875 127.4375 C-31.73518966 129.66087007 -42.52563072 132.59768005 -51.1875 142.5625 C-55.06395004 148.49562215 -56.33966486 153.94771665 -56.4375 161 C-56.46328125 162.11246094 -56.4890625 163.22492188 -56.515625 164.37109375 C-56.14967316 167.93041107 -55.32907423 169.72541451 -53.1875 172.5625 C-48.06569854 175.97703431 -42.16309376 175.06623815 -36.1875 174.5625 C-22.90077478 171.5683084 -13.52519731 163.38239039 -6.1875 152.25 C7.68470009 128.07592477 9.43532205 101.51347314 2.68310547 74.81835938 C-2.39342139 56.32434551 -11.94661361 38.52821212 -22.12890625 22.375 C-24.4378749 18.42163671 -24.55561149 15.05346013 -24.1875 10.5625 C-22.82886558 6.17558405 -20.93464331 2.65308288 -17.0625 0.0625 C-11.48832306 -2.62269491 -5.57332 -2.51345804 0 0 Z " fill="#3C7DCD" transform="translate(137.1875,4.4375)"/>
</svg>
